<svg xmlns="http://www.w3.org/2000/svg" viewBox="0 0 119.9 40.87"><defs><style>.a{fill:#fff;}</style></defs><title>Asset 1</title><path class="a" d="M28.72,13.54H20V18A8.36,8.36,0,0,0,17,14.2a9.42,9.42,0,0,0-5.38-1.48,10.63,10.63,0,0,0-6.08,1.76,11.61,11.61,0,0,0-4.07,4.87A17.64,17.64,0,0,0,0,26.69,17.82,17.82,0,0,0,1.4,34a10.9,10.9,0,0,0,4,4.83,11.22,11.22,0,0,0,6.31,1.71,9.89,9.89,0,0,0,5.59-1.46,8.13,8.13,0,0,0,3.2-3.74v4.38h11V32.81H28.72V13.54ZM18.86,31.21a5.4,5.4,0,0,1-4.19,1.72,5.37,5.37,0,0,1-4.19-1.72,6.59,6.59,0,0,1-1.54-4.58,6.47,6.47,0,0,1,1.54-4.52,5.29,5.29,0,0,1,4.19-1.71,5.32,5.32,0,0,1,4.19,1.71,6.57,6.57,0,0,1,1.54,4.52A6.69,6.69,0,0,1,18.86,31.21Z"/><path class="a" d="M53.84,13.29a8.83,8.83,0,0,0-1.39-.1,8.61,8.61,0,0,0-3.11.6,7.71,7.71,0,0,0-2.79,1.87,7,7,0,0,0-1.66,3.2V13.54h-11v7h2.8V32.81h-2.8v6.95H49.84V32.81H45.4V27a5.33,5.33,0,0,1,2-4.63,8.27,8.27,0,0,1,5.08-1.5,11.92,11.92,0,0,1,1.42.07V13.31Z"/><path class="a" d="M66.94,1.38a5.46,5.46,0,0,0-4-1.38,5.37,5.37,0,0,0-4,1.38,4.65,4.65,0,0,0-1.35,3.37,4.62,4.62,0,0,0,1.35,3.37,5.34,5.34,0,0,0,4,1.39,5.42,5.42,0,0,0,4-1.39,4.65,4.65,0,0,0,1.34-3.37A4.68,4.68,0,0,0,66.94,1.38Zm1,31.43V13.54H56.43v7h2.81V32.81H56.43v6.95h14.3V32.81Z"/><path class="a" d="M102.74,32.81V23.36q0-10.63-9.78-10.64a10.23,10.23,0,0,0-5.46,1.39,7.46,7.46,0,0,0-3.17,3.83v-4.4h-11v7h2.8V32.81h-2.8v6.95H87.79V32.81h-3V25.25c0-3.27,1.6-4.91,4.76-4.91,3,0,4.46,1.6,4.46,4.75v7.72h-3v6.95h14.47V32.81Z"/><path class="a" d="M114.54,40.87a5.37,5.37,0,0,1-4-1.38,5,5,0,0,1,0-6.74,6.56,6.56,0,0,1,8,0,4.88,4.88,0,0,1,0,6.74A5.37,5.37,0,0,1,114.54,40.87Z"/></svg>