<svg xmlns="http://www.w3.org/2000/svg" xmlns:xlink="http://www.w3.org/1999/xlink" viewBox="0 0 884.88 114.31"><defs><style>.a{fill:none;}.b{clip-path:url(#a);}.c{fill:#fff;}.d{fill:#d1ffd4;}</style><clipPath id="a" transform="translate(0 0)"><rect class="a" width="884.88" height="114.31"/></clipPath></defs><title>Asset 6lg</title><g class="b"><path class="c" d="M774.9,24.93q-7.11,0-10.59-3.61a12.26,12.26,0,0,1-3.49-8.85,12.25,12.25,0,0,1,3.49-8.85Q767.79,0,774.9,0q7,0,10.52,3.62A12.14,12.14,0,0,1,789,12.47a12.16,12.16,0,0,1-3.56,8.85q-3.55,3.62-10.52,3.61m-17,87.24V93.94h7.38V61.63h-7.38V43.4H788V93.94h7.38v18.23Z" transform="translate(0 0)"/><path class="d" d="M49.5,89.26c-2.71,3-6.35,4.5-11,4.5s-8.33-1.53-11-4.5-4-7-4-12,1.33-8.91,4-11.87,6.35-4.5,11-4.5,8.29,1.48,11,4.5,4,7,4,11.87-1.38,9-4,12M75.37,42.88H52.56V54.7a21.73,21.73,0,0,0-8-10.08,24.71,24.71,0,0,0-14.11-3.89,27.85,27.85,0,0,0-16,4.61A30.27,30.27,0,0,0,3.79,58.12,46.05,46.05,0,0,0,0,77.4,46.46,46.46,0,0,0,3.68,96.67a28.66,28.66,0,0,0,10.59,12.69c4.6,3,10.12,4.5,16.57,4.5,5.93,0,10.79-1.28,14.67-3.84a21.28,21.28,0,0,0,8.39-9.81v11.5H82.79V93.45H75.37V42.88Z" transform="translate(0 0)"/><path class="d" d="M485.72,89.7c-2.71,3-6.35,4.5-11,4.5s-8.33-1.53-11-4.5-4-7-4-12,1.33-8.91,4-11.87,6.34-4.5,11-4.5,8.29,1.48,11,4.5,4,7,4,11.87-1.38,9-4,12m25.87-46.38H488.78V55.14a21.73,21.73,0,0,0-8-10.08,24.71,24.71,0,0,0-14.11-3.89,27.85,27.85,0,0,0-16,4.61A30.27,30.27,0,0,0,440,58.56a46.09,46.09,0,0,0-3.79,19.28,46.46,46.46,0,0,0,3.68,19.27,28.59,28.59,0,0,0,10.59,12.69c4.6,3,10.12,4.5,16.57,4.5,5.93,0,10.78-1.28,14.67-3.84a21.28,21.28,0,0,0,8.39-9.81v11.5H519V93.89h-7.42V43.32Z" transform="translate(0 0)"/><path class="c" d="M141.3,42.22a22.82,22.82,0,0,0-11.81,1.33,20,20,0,0,0-7.32,4.91,18.06,18.06,0,0,0-4.34,8.38v-14H89V61.14h7.36V93.46H89v18.25h41.82V93.46H119.16V78.16c0-5.52,1.79-9.61,5.31-12.17s8-3.93,13.35-3.93a26.54,26.54,0,0,1,3.74.2v-20c-.11,0-.16-.05-.26-.05" transform="translate(0 0)"/><path class="c" d="M178.28,93.45V42.88H148.12V61.14h7.36V93.45h-7.36v18.26h37.53V93.45ZM175.68,11c-2.41-2.4-5.88-3.63-10.54-3.63S156.86,8.57,154.56,11A12.23,12.23,0,0,0,151,19.82a12.18,12.18,0,0,0,3.53,8.84c2.3,2.41,5.83,3.64,10.58,3.64s8.13-1.23,10.54-3.64a12.17,12.17,0,0,0,3.52-8.84A12.22,12.22,0,0,0,175.68,11" transform="translate(0 0)"/><path class="c" d="M269.64,93.45V68.66q0-27.93-25.67-27.93a26.91,26.91,0,0,0-14.32,3.64,19.64,19.64,0,0,0-8.33,10.07V42.88H192.47V61.14h7.37V93.45h-7.37v18.26h37.95V93.45h-7.77V73.61c0-8.58,4.19-12.88,12.48-12.88,7.77,0,11.71,4.19,11.71,12.47V93.45H239v18.26h38V93.45Z" transform="translate(0 0)"/><path class="c" d="M423.76,93.94h7.37v18.23H393.46V93.94H401V73.69q0-12.47-11.12-12.46-5.91,0-9,3.35t-3.08,9.52V93.94h7.51v18.23H347.88V93.94h7.52V73.69q0-12.47-11.13-12.46-5.91,0-9,3.35T332.2,74.1V93.94h7.51v18.23H302V93.94h7.38V61.63H302V43.4h28.83V54.52a18.89,18.89,0,0,1,8.38-9.78,27.27,27.27,0,0,1,14-3.48q15.94,0,21.18,14.21a20.44,20.44,0,0,1,9-10.4,29.74,29.74,0,0,1,15.42-3.81q24.93,0,24.93,29.89Z" transform="translate(0 0)"/><path class="c" d="M558.29,114.31q-11.65,0-20.31-4.56a32.9,32.9,0,0,1-13.47-12.93q-4.83-8.38-4.83-19.91a43.08,43.08,0,0,1,3.82-18.63,29.52,29.52,0,0,1,10.87-12.53,30,30,0,0,1,16.55-4.49A25.46,25.46,0,0,1,563.05,44a18.85,18.85,0,0,1,7.71,7.17V43.4h15.41V74H568.75v-.8a12.65,12.65,0,0,0-3.15-8.58Q562.45,61,556.68,61c-4.28,0-7.62,1.45-10,4.36s-3.56,6.68-3.56,11.32q0,8.6,5,13.28c3.3,3.13,7.55,4.68,12.73,4.68a19.36,19.36,0,0,0,9-1.93,19.69,19.69,0,0,0,6-4.63l12.21,14.35a36.52,36.52,0,0,1-12.61,8.7,43.12,43.12,0,0,1-17.16,3.22" transform="translate(0 0)"/><path class="c" d="M672.52,93.94h7.38v18.23H642V93.94h7.78V73.69q0-12.47-11.67-12.46-12.47,0-12.47,12.87V93.94h7.78v18.23H595.44V93.94h7.38V61.63h-7.38V43.4h28.82V54.93a19.61,19.61,0,0,1,8.31-10.06,27,27,0,0,1,14.35-3.61q25.61,0,25.6,27.88Z" transform="translate(0 0)"/><path class="c" d="M718.81,58.15c-3.94,0-7.06,1.07-9.39,3.21a13.3,13.3,0,0,0-4,8.85h25.2a13.93,13.93,0,0,0-3.41-8.85c-2-2.14-4.81-3.21-8.38-3.21m3.08,56.16q-12.46,0-21.38-4.56A32.73,32.73,0,0,1,686.77,97a37.6,37.6,0,0,1-4.83-19.37q0-11.25,4.49-19.43A30.6,30.6,0,0,1,699,45.61a39.1,39.1,0,0,1,18.83-4.35q10.46,0,18,4.22a29,29,0,0,1,11.67,11.86,37.3,37.3,0,0,1,4.08,17.83c0,.89,0,2-.13,3.35a33.72,33.72,0,0,1-.41,3.49H705.53a15.38,15.38,0,0,0,5.84,10q4.75,3.69,12.67,3.69a23.4,23.4,0,0,0,9-1.61,18.89,18.89,0,0,0,6.57-4.42l12.06,14.21a34.61,34.61,0,0,1-12.73,7.7,50.07,50.07,0,0,1-17,2.75" transform="translate(0 0)"/></g><polygon class="c" points="802.34 2.28 802.34 20.52 809.98 20.52 809.98 93.94 802.61 93.94 802.61 112.17 839.87 112.17 839.87 93.94 832.77 93.94 832.77 2.28 802.34 2.28"/><polygon class="d" points="847.34 2.28 847.34 20.52 854.99 20.52 854.99 93.94 847.61 93.94 847.61 112.17 884.88 112.17 884.88 93.94 877.77 93.94 877.77 2.28 847.34 2.28"/></svg>